HIERARCHY
ROOT Hips
{
  OFFSET 0 0 0
  CHANNELS 6 Xposition Yposition Zposition Zrotation Xrotation Yrotation
  JOINT Spine
  {
    OFFSET 0.00000000 0.00000000 0.00000000
    CHANNELS 3 Zrotation Xrotation Yrotation
    JOINT Spine1
    {
      OFFSET 0.19000000 0.00000000 0.00000000
      CHANNELS 3 Zrotation Xrotation Yrotation
      JOINT Neck
      {
        OFFSET 0.22500000 0.00600000 0.00000000
        CHANNELS 3 Zrotation Xrotation Yrotation
        JOINT Head
        {
          OFFSET 0.14000000 0.00030878 0.00000000
          CHANNELS 3 Zrotation Xrotation Yrotation
          End Site
          {
            OFFSET 0.17000000 0.00000000 0.00000000
          }
        }
      }
      JOINT LeftShoulder
      {
        OFFSET 0.19800000 0.03700000 0.04300000
        CHANNELS 3 Zrotation Xrotation Yrotation
        JOINT LeftArm
        {
          OFFSET 0.08000000 0.00000000 0.00000000
          CHANNELS 3 Zrotation Xrotation Yrotation
          JOINT LeftForeArm
          {
            OFFSET 0.15200000 0.00000000 0.00000000
            CHANNELS 3 Zrotation Xrotation Yrotation
            JOINT LeftHand
            {
              OFFSET 0.17800000 0.00000000 0.00000000
              CHANNELS 3 Zrotation Xrotation Yrotation
              End Site
              {
                OFFSET 0.07200000 0.00000000 0.00000000
              }
            }
          }
        }
      }
      JOINT RightShoulder
      {
        OFFSET 0.19800000 0.03700000 -0.04300000
        CHANNELS 3 Zrotation Xrotation Yrotation
        JOINT RightArm
        {
          OFFSET 0.08000000 0.00000000 0.00151654
          CHANNELS 3 Zrotation Xrotation Yrotation
          JOINT RightForeArm
          {
            OFFSET 0.15200000 0.00000000 0.00000000
            CHANNELS 3 Zrotation Xrotation Yrotation
            JOINT RightHand
            {
              OFFSET 0.17800000 0.00000000 0.00000000
              CHANNELS 3 Zrotation Xrotation Yrotation
              End Site
              {
                OFFSET 0.07200000 0.00000000 0.00000000
              }
            }
          }
        }
      }
    }
  }
  JOINT LeftUpLeg
  {
    OFFSET 0.05984250 -0.07666000 0.04788790
    CHANNELS 3 Zrotation Xrotation Yrotation
    JOINT LeftLeg
    {
      OFFSET 0.16000000 0.00000000 0.00000000
      CHANNELS 3 Zrotation Xrotation Yrotation
      JOINT LeftFoot
      {
        OFFSET 0.18000000 0.00000000 0.00000000
        CHANNELS 3 Zrotation Xrotation Yrotation
        End Site
        {
          OFFSET 0.00000000 -0.10800000 0.00000000
        }
      }
    }
  }
  JOINT RightUpLeg
  {
    OFFSET 0.05984250 -0.07665980 -0.04788790
    CHANNELS 3 Zrotation Xrotation Yrotation
    JOINT RightLeg
    {
      OFFSET 0.16000000 0.00000000 0.00000000
      CHANNELS 3 Zrotation Xrotation Yrotation
      JOINT RightFoot
      {
        OFFSET 0.18000000 0.00000000 0.00000000
        CHANNELS 3 Zrotation Xrotation Yrotation
        End Site
        {
          OFFSET 0.00000000 -0.10800000 0.00000000
        }
      }
    }
  }
  JOINT Tail
  {
    OFFSET 0.06836960 -0.00722574 0.00000000
    CHANNELS 3 Zrotation Xrotation Yrotation
    JOINT Tail1
    {
      OFFSET 0.12000000 0.00000000 0.00000000
      CHANNELS 3 Zrotation Xrotation Yrotation
      End Site
      {
        OFFSET 0.12000000 0.00000000 0.00000000
      }
    }
  }
}
MOTION
Frames:	10
Frame Time:	0.0166667
0.0000000 0.0821667 0.0000000 -101.806 -0.52401 2.50528 -120.221 -3.87808 -12.3802 -8.68525 0.3942 13.883 -14.4565 -13.924 5.95726 -97.8981 73.7935 105.18 -110.069 -37.3159 -135.892 79.9917 -76.0022 -160.825 -75.0094 1.56178 2.63163 11.0956 -0.353317 -16.6462 77.1761 -27.9018 46.4332 136.528 -68.3712 26.6428 -83.1028 -15.1971 -0.221072 4.34446 0.715328 -12.0254 -130.207 67.8568 -0.528296 158.849 48.8587 1.20219 -19.8885 -0.968781 16.1793 -132.063 -37.2981 5.77634 160.746 -37.0984 -4.13949 -14.0689 -7.68549 -26.9629 82.8058 24.2708 -6.09125 17.1897 -24.0969 8.44856 
-0.0002469 0.0823626 0.0002634 -101.797 -0.43918 2.59787 -120.322 -3.8005 -12.3649 -8.61357 0.467533 13.8591 -14.3466 -13.9497 5.94469 -97.6136 73.9708 104.89 -110.022 -37.3068 -135.787 80.7781 -76.1216 -159.901 -74.6951 1.9852 2.28739 10.955 -0.30493 -16.7835 77.1844 -27.8658 46.3741 135.012 -67.3751 23.0573 -82.8337 -16.0825 0.605303 4.13141 0.780911 -12.8481 -130.502 67.699 -0.401133 158.834 48.0692 1.17987 -19.5812 -0.949948 16.1026 -132.385 -37.5855 5.52831 160.754 -37.7784 -4.19509 -13.7186 -7.82758 -27.3545 82.8133 24.0484 -5.91629 17.1261 -24.0158 8.3339 
-0.0000217 0.0824345 0.0005723 -101.879 -0.34672 2.81263 -120.198 -3.70795 -12.3001 -8.74013 0.527139 13.8395 -14.2788 -14.2481 6.28998 -96.3905 74.7429 103.599 -110.087 -37.2781 -136.01 79.9087 -75.9558 -160.873 -74.831 2.15637 2.38037 10.9216 -0.339623 -16.2648 77.2452 -27.8629 46.607 135.493 -67.8296 24.1842 -82.8901 -15.8926 0.250255 4.05591 0.832095 -12.858 -129.77 67.8864 -1.03252 158.673 48.1389 1.22407 -19.9087 -1.03316 15.9017 -132.308 -37.1262 5.38236 160.746 -37.3956 -4.15514 -13.6721 -7.82429 -27.2274 82.9031 23.7581 -5.83188 17.0934 -23.9639 8.31974 
-0.0007478 0.0822669 0.0005143 -102.007 -0.34231 2.84171 -120.134 -3.73579 -12.3034 -8.74781 0.511526 13.8199 -14.2527 -14.2709 6.35079 -95.8259 75.0081 103.182 -110.199 -37.3347 -136.2 79.0459 -75.9121 -161.724 -74.777 1.96182 2.53373 10.7879 -0.336921 -16.3834 77.281 -27.8225 46.6457 136.678 -68.6643 26.9581 -82.845 -15.0573 -0.367689 4.19718 0.771545 -11.9929 -127.208 68.6878 -2.8015 158.632 49.3971 1.28095 -21.2068 -1.22892 15.6257 -132.405 -38.5309 5.02707 160.884 -38.7259 -4.44242 -13.538 -7.90081 -27.6853 83.0165 23.7215 -5.78004 17.1151 -23.9718 8.35115 
-0.0020449 0.0823377 0.0003076 -101.928 -0.38034 2.76377 -120.307 -3.7673 -12.4822 -8.69756 0.517327 14.0477 -14.2238 -14.1922 5.9856 -96.3089 74.5817 103.629 -110.15 -37.2807 -136.169 79.7997 -75.9862 -160.795 -74.3969 1.80375 2.48018 10.6299 -0.29024 -16.6946 77.2989 -27.793 46.6413 136.175 -68.2033 25.5585 -82.4799 -15.5142 0.0551883 3.9418 0.840572 -12.4477 -126.427 69.1789 -3.36596 158.736 49.7297 1.2727 -21.5349 -1.25771 15.6538 -132.797 -40.2735 4.30401 161.087 -40.1672 -4.75018 -13.8991 -7.9003 -28.3576 82.9416 23.8051 -5.78346 17.1032 -23.9797 8.30017 
-0.0028084 0.0826725 0.0001032 -101.973 -0.40738 2.75612 -120.332 -3.77376 -12.4092 -8.60562 0.508083 13.9052 -14.1302 -14.4582 6.16583 -95.6802 74.842 102.858 -110.129 -37.3544 -135.979 79.8424 -76.1962 -160.599 -74.0973 2.26068 2.202 10.3554 -0.230553 -16.7804 77.2972 -27.7687 46.5722 135.232 -67.7063 23.1999 -82.0347 -16.216 0.634433 3.55297 0.940124 -13.0073 -125.022 69.2835 -4.53122 158.689 49.7605 1.26239 -21.9166 -1.33389 15.4374 -132.573 -41.2584 4.05869 161.12 -41.1639 -4.99535 -14.1398 -7.84308 -28.5599 83.0616 23.6854 -5.71955 16.9785 -23.8957 8.16547 
-0.0026786 0.0827746 0.0002940 -102.020 -0.35374 2.93007 -120.198 -3.68572 -12.3681 -8.78615 0.557229 13.9444 -13.987 -14.8465 6.3984 -94.4136 75.2859 101.535 -110.15 -37.266 -136.198 79.4383 -76.2399 -161.317 -74.1921 2.38579 2.34886 10.2914 -0.268712 -16.2785 77.3077 -27.8208 46.7474 136.19 -68.3242 25.1411 -82.1027 -15.6036 0.200786 3.75676 0.865376 -12.3237 -124.292 69.5992 -5.12752 158.612 50.1994 1.31242 -22.3311 -1.40467 15.2933 -132.473 -41.0212 4.06119 161.139 -40.8636 -4.97462 -13.9573 -7.88648 -28.5014 83.1451 23.4109 -5.64183 16.9415 -23.8232 8.11825 
-0.0026657 0.0827040 0.0004573 -102.017 -0.36694 2.94232 -120.22 -3.71767 -12.4182 -8.75989 0.526585 14.0522 -14.0193 -15.0476 6.46148 -93.6027 75.5224 100.78 -110.201 -37.2692 -136.326 79.2827 -76.218 -161.551 -74.2527 2.11577 2.4614 10.372 -0.277282 -16.4981 77.2671 -27.8739 46.7222 137.258 -69.033 27.8219 -82.2642 -14.7609 -0.49221 3.89747 0.803228 -11.5081 -123.436 69.8811 -5.7034 158.565 50.9593 1.35906 -22.8388 -1.4711 15.2007 -132.943 -41.5619 3.58548 161.194 -41.0678 -5.02293 -13.6859 -8.02533 -28.8552 83.0874 23.4802 -5.64624 17.0232 -23.8942 8.20031 
-0.0029485 0.0828344 0.0003055 -101.958 -0.42262 2.82787 -120.31 -3.79213 -12.5143 -8.67304 0.495246 14.1098 -14.0776 -14.9698 6.23986 -94.3233 75.098 101.474 -110.153 -37.3005 -136.141 79.7465 -75.9307 -160.522 -74.021 2.257 2.32429 10.1492 -0.227531 -16.574 77.2886 -27.8231 46.6775 136.147 -68.3617 25.2776 -82.0568 -15.3989 0.177708 3.75767 0.839668 -12.1178 -123.44 69.4486 -5.80513 158.633 50.4302 1.29083 -22.6185 -1.44745 15.1431 -133.495 -42.3449 3.0427 161.24 -41.8533 -5.13053 -13.6341 -8.15017 -29.4631 82.9258 23.7655 -5.67419 17.145 -24.0363 8.26546 
-0.0030145 0.0830107 0.0001934 -102.040 -0.40804 2.83767 -120.206 -3.78885 -12.4957 -8.71385 0.516491 14.0313 -13.967 -15.1275 6.32301 -94.2666 75.1008 101.224 -110.121 -37.2959 -136.067 79.6978 -75.988 -160.567 -73.9427 2.48993 2.20613 10.0576 -0.21585 -16.4362 77.2879 -27.8155 46.6555 135.713 -68.1163 24.4763 -81.8935 -15.9069 0.289248 3.3693 0.947124 -12.5256 -123.217 69.2877 -6.054 158.63 50.1141 1.26671 -22.4127 -1.42772 15.0673 -133.474 -42.3791 2.93335 161.269 -41.869 -5.15292 -13.5476 -8.18517 -29.509 83.029 23.6746 -5.5775 17.0752 -23.9901 8.1658 
